 <svg width="48" height="46" viewBox="0 0 45 46" fill="none" xmlns="http://www.w3.org/2000/svg">
                                            <path d="M25.9724 15.8735H19.8613C19.4562 15.874 19.0679 16.0341 18.7815 16.3186C18.4951 16.6032 18.334 16.989 18.3335 17.3914V28.5223C18.334 28.9248 18.4951 29.3106 18.7815 29.5951C19.0679 29.8797 19.4562 30.0397 19.8613 30.0402H25.9724C26.3774 30.0397 26.7658 29.8797 27.0522 29.5951C27.3386 29.3106 27.4997 28.9248 27.5002 28.5223V17.3914C27.4997 16.989 27.3386 16.6032 27.0522 16.3186C26.7658 16.0341 26.3774 15.874 25.9724 15.8735ZM19.8613 16.8854H25.9724C26.1074 16.8856 26.2368 16.9389 26.3323 17.0338C26.4278 17.1287 26.4815 17.2573 26.4816 17.3914V17.8973H19.352V17.3914C19.3522 17.2573 19.4059 17.1287 19.5013 17.0338C19.5968 16.9389 19.7263 16.8856 19.8613 16.8854ZM25.9724 29.0283H19.8613C19.7263 29.0281 19.5968 28.9748 19.5013 28.8799C19.4059 28.7851 19.3522 28.6565 19.352 28.5223V28.0164H26.4816V28.5223C26.4815 28.6565 26.4278 28.7851 26.3323 28.8799C26.2368 28.9748 26.1074 29.0281 25.9724 29.0283Z" fill="#FF4444"></path>
                                            <path d="M22.5 4.96216C19.0234 4.96216 15.6248 5.9931 12.7341 7.92461C9.84342 9.85612 7.59038 12.6014 6.25994 15.8134C4.92949 19.0254 4.58139 22.5598 5.25964 25.9696C5.9379 29.3794 7.61205 32.5116 10.0704 34.9699C12.5287 37.4282 15.6609 39.1024 19.0707 39.7807C22.4805 40.4589 26.0149 40.1108 29.2269 38.7804C32.4389 37.4499 35.1842 35.1969 37.1157 32.3062C39.0472 29.4155 40.0781 26.0169 40.0781 22.5403C40.0729 17.8799 38.2192 13.4119 34.9238 10.1165C31.6284 6.82108 27.1604 4.96742 22.5 4.96216ZM23.9063 37.2372V31.6809C23.9063 31.3079 23.7581 30.9503 23.4944 30.6865C23.2307 30.4228 22.873 30.2747 22.5 30.2747C22.127 30.2747 21.7694 30.4228 21.5056 30.6865C21.2419 30.9503 21.0938 31.3079 21.0938 31.6809V37.2372C17.6812 36.906 14.4898 35.3993 12.0654 32.9749C9.64104 30.5505 8.13434 27.3591 7.80305 23.9465H13.3594C13.7323 23.9465 14.09 23.7984 14.3538 23.5347C14.6175 23.2709 14.7656 22.9132 14.7656 22.5403C14.7656 22.1673 14.6175 21.8096 14.3538 21.5459C14.09 21.2822 13.7323 21.134 13.3594 21.134H7.80305C8.13434 17.7215 9.64104 14.5301 12.0654 12.1057C14.4898 9.68132 17.6812 8.17462 21.0938 7.84332V13.3997C21.0938 13.7726 21.2419 14.1303 21.5056 14.394C21.7694 14.6578 22.127 14.8059 22.5 14.8059C22.873 14.8059 23.2307 14.6578 23.4944 14.394C23.7581 14.1303 23.9063 13.7726 23.9063 13.3997V7.84332C27.3188 8.17462 30.5102 9.68132 32.9346 12.1057C35.359 14.5301 36.8657 17.7215 37.197 21.134H31.6406C31.2677 21.134 30.91 21.2822 30.6463 21.5459C30.3825 21.8096 30.2344 22.1673 30.2344 22.5403C30.2344 22.9132 30.3825 23.2709 30.6463 23.5347C30.91 23.7984 31.2677 23.9465 31.6406 23.9465H37.197C36.8657 27.3591 35.359 30.5505 32.9346 32.9749C30.5102 35.3993 27.3188 36.906 23.9063 37.2372Z" fill="#FFA500"></path>
                                        </svg>