<svg width="45" height="46" viewBox="0 0 45 46" fill="none" xmlns="http://www.w3.org/2000/svg">
                                            <path d="M22.5 30.9766C30.2665 30.9766 36.5625 24.6806 36.5625 16.9141C36.5625 9.14756 30.2665 2.85156 22.5 2.85156C14.7335 2.85156 8.4375 9.14756 8.4375 16.9141C8.4375 24.6806 14.7335 30.9766 22.5 30.9766Z" fill="#a854ff"></path>
                                            <path d="M36.4211 30.8354C36.6849 30.5717 36.833 30.214 36.833 29.841C36.833 29.468 36.6849 29.1103 36.4211 28.8465C36.1574 28.5828 35.7997 28.4346 35.4267 28.4346C35.0537 28.4346 34.696 28.5828 34.4322 28.8465C32.8654 30.4143 31.0051 31.6581 28.9576 32.5068C26.91 33.3555 24.7153 33.7925 22.4988 33.7928C20.2823 33.7932 18.0875 33.3569 16.0396 32.5088C13.9918 31.6608 12.1311 30.4176 10.5638 28.8503C8.99649 27.283 7.75331 25.4223 6.90525 23.3745C6.0572 21.3266 5.62089 19.1318 5.62124 16.9153C5.62159 14.6988 6.05859 12.5041 6.90729 10.4565C7.75599 8.40895 8.99975 6.54863 10.5675 4.98183C10.8313 4.71809 10.9795 4.36038 10.9795 3.9874C10.9795 3.61441 10.8313 3.2567 10.5675 2.99296C10.3038 2.72922 9.94609 2.58105 9.57311 2.58105C9.20012 2.58105 8.84241 2.72922 8.57867 2.99296C5.91009 5.66168 4.06477 9.04116 3.26249 12.7289C2.46021 16.4167 2.73479 20.2574 4.05351 23.7936C5.37223 27.3297 7.67952 30.4123 10.7006 32.6743C13.7217 34.9362 17.3293 36.2822 21.0936 36.5519V39.4142H16.8749C16.5019 39.4142 16.1443 39.5623 15.8805 39.8261C15.6168 40.0898 15.4686 40.4475 15.4686 40.8204C15.4686 41.1934 15.6168 41.5511 15.8805 41.8148C16.1443 42.0785 16.5019 42.2267 16.8749 42.2267H28.1249C28.4979 42.2267 28.8555 42.0785 29.1193 41.8148C29.383 41.5511 29.5311 41.1934 29.5311 40.8204C29.5311 40.4475 29.383 40.0898 29.1193 39.8261C28.8555 39.5623 28.4979 39.4142 28.1249 39.4142H23.9061V36.5519C28.6329 36.2266 33.0804 34.1951 36.4211 30.8354Z" fill="#a854ff"></path>
                                        </svg>