<svg width="45" height="46" viewBox="0 0 35 36" fill="none" xmlns="http://www.w3.org/2000/svg">
                                            <circle cx="17.5" cy="17.5403" r="16.5" stroke="#a854ff" stroke-width="2"></circle>
                                            <path d="M28.2185 16.8527L13.7997 8.59928C13.5891 8.47713 13.3498 8.41313 13.1063 8.41382C12.8629 8.41452 12.624 8.47988 12.4141 8.60322C12.2068 8.7212 12.0346 8.89213 11.9151 9.09852C11.7956 9.30492 11.733 9.53936 11.7339 9.77785V26.3025C11.733 26.541 11.7956 26.7755 11.9151 26.9819C12.0346 27.1882 12.2068 27.3592 12.4141 27.4772C12.624 27.6005 12.8629 27.6659 13.1063 27.6666C13.3498 27.6673 13.5891 27.6033 13.7997 27.4811L28.2185 19.2277C28.4313 19.1109 28.6089 18.939 28.7325 18.7301C28.8562 18.5212 28.9214 18.2829 28.9214 18.0402C28.9214 17.7974 28.8562 17.5591 28.7325 17.3502C28.6089 17.1413 28.4313 16.9695 28.2185 16.8527L28.2185 16.8527ZM21.3749 19.0124L22.9954 20.6329L15.4165 24.9708L21.3749 19.0124ZM15.4156 11.1085L22.9955 15.4474L21.3749 17.0679L15.4156 11.1085ZM24.2321 19.9251L22.3472 18.0402L24.2322 16.1552L27.5252 18.0402L24.2321 19.9251Z" fill="#a854ff"></path>
                                        </svg>