<svg width="54" height="54" viewBox="0 0 54 54" fill="none" xmlns="http://www.w3.org/2000/svg">
                                <path d="M20.3743 37.3316C19.9497 37.1901 19.4863 37.2231 19.0859 37.4232C18.6856 37.6234 18.3812 37.9744 18.2396 38.399C16.8574 42.5457 12.3556 43.83 9.77327 44.2272C10.1704 41.6435 11.4548 37.1426 15.6014 35.7605C15.8118 35.6905 16.0063 35.5798 16.1739 35.4346C16.3414 35.2894 16.4787 35.1126 16.5779 34.9143C16.6771 34.7161 16.7363 34.5002 16.752 34.2791C16.7678 34.0579 16.7398 33.8358 16.6697 33.6255C16.5995 33.4152 16.4887 33.2207 16.3434 33.0533C16.1981 32.8858 16.0212 32.7486 15.8229 32.6496C15.6245 32.5505 15.4086 32.4915 15.1875 32.4759C14.9663 32.4603 14.7443 32.4884 14.534 32.5586C11.083 33.709 8.54781 36.4506 7.20226 40.4871C6.60363 42.2976 6.27295 44.1859 6.2207 46.092C6.22073 46.5396 6.39852 46.9688 6.71499 47.2852C7.03145 47.6017 7.46066 47.7795 7.9082 47.7795C9.81435 47.7273 11.7026 47.3966 13.5131 46.798C17.5495 45.4525 20.2911 42.9172 21.4416 39.4662C21.5831 39.0416 21.5501 38.5782 21.35 38.1779C21.1498 37.7776 20.7989 37.4732 20.3743 37.3316Z" fill="#A585C6"></path>
                                <path d="M48.0119 8.82144C47.9081 8.1068 47.5761 7.44483 47.0655 6.93422C46.5549 6.42361 45.8929 6.09171 45.1782 5.98799C42.7975 5.63276 36.6097 5.45787 30.5794 11.4878L28.6872 13.3801H15.7664C15.323 13.3789 14.8838 13.4657 14.4741 13.6353C14.0645 13.805 13.6925 14.0542 13.3798 14.3685L6.5577 21.1907C6.12579 21.6227 5.81921 22.1638 5.67065 22.7563C5.5221 23.3489 5.53715 23.9706 5.71419 24.5552C5.89123 25.1399 6.22362 25.6655 6.67592 26.0761C7.12823 26.4867 7.68349 26.7668 8.28249 26.8866L16.6219 28.5545L25.4454 37.3779L27.1132 45.7174C27.2328 46.3165 27.5129 46.872 27.9235 47.3244C28.3341 47.7768 28.8598 48.1093 29.4445 48.2864C30.0293 48.4634 30.6512 48.4784 31.2437 48.3297C31.8363 48.1809 32.3775 47.8741 32.8093 47.442L39.6314 40.6198C39.9458 40.3071 40.195 39.9352 40.3646 39.5256C40.5343 39.116 40.621 38.6768 40.6198 38.2334V25.3125L42.512 23.4202C48.5423 17.3899 48.3672 11.2021 48.0119 8.82144ZM15.7664 16.7551H25.3123L16.8993 25.1681L8.94435 23.5772L15.7664 16.7551ZM37.2448 38.2334L30.4227 45.0555L28.8317 37.1007L37.2448 28.6876L37.2448 38.2334Z" fill="#b76bff"></path>
                            </svg>