<svg width="45" height="46" viewBox="0 0 51 51" fill="none" xmlns="http://www.w3.org/2000/svg">
                                            <path d="M42.041 22.1634C41.8654 21.6121 41.5277 21.1266 41.0721 20.7702C40.6164 20.4138 40.0639 20.2029 39.4866 20.1652L29.0469 19.4346L25.1742 9.68289C24.9646 9.14377 24.5971 8.68053 24.1197 8.35388C23.6424 8.02722 23.0774 7.85239 22.499 7.85229H22.4963C21.9187 7.85333 21.355 8.0286 20.8787 8.35521C20.4024 8.68181 20.0357 9.14454 19.8266 9.68289L15.8962 19.4909L5.51416 20.1652C4.93688 20.2029 4.38437 20.4138 3.92871 20.7702C3.47306 21.1266 3.13542 21.6121 2.95984 22.1634C2.77462 22.7224 2.76202 23.3243 2.92368 23.8906C3.08534 24.4569 3.41377 24.9614 3.86621 25.3384L11.8533 32.0895L9.47748 41.4348C9.31372 42.0643 9.34384 42.7285 9.56387 43.3406C9.78391 43.9527 10.1836 44.4841 10.7107 44.8652C11.2196 45.2355 11.8281 45.4439 12.4571 45.4635C13.0861 45.4831 13.7064 45.3129 14.2373 44.9751L22.477 39.7552C22.488 39.747 22.499 39.7415 22.5237 39.7552L31.3897 45.372C31.871 45.6795 32.434 45.8346 33.0049 45.817C33.5758 45.7993 34.1281 45.6098 34.5895 45.2731C35.0671 44.9279 35.4293 44.4465 35.6287 43.892C35.8282 43.3375 35.8556 42.7357 35.7073 42.1654L33.1832 31.9563L41.1346 25.3384C41.587 24.9614 41.9155 24.4569 42.0771 23.8906C42.2388 23.3243 42.2262 22.7224 42.041 22.1634Z" fill="#a854ff"></path>
                                            <path d="M36.1598 8.07582H33.2841C32.9027 8.07582 32.537 7.92433 32.2673 7.65468C31.9977 7.38503 31.8462 7.0193 31.8462 6.63795C31.8462 6.25661 31.9977 5.89088 32.2673 5.62123C32.537 5.35157 32.9027 5.20008 33.2841 5.20008H36.1598V2.32434C36.1598 1.943 36.3113 1.57727 36.5809 1.30762C36.8506 1.03796 37.2163 0.886475 37.5977 0.886475C37.979 0.886475 38.3447 1.03796 38.6144 1.30762C38.8841 1.57727 39.0355 1.943 39.0355 2.32434V5.20008H41.9113C42.2926 5.20008 42.6584 5.35157 42.928 5.62123C43.1977 5.89088 43.3491 6.25661 43.3491 6.63795C43.3491 7.0193 43.1977 7.38503 42.928 7.65468C42.6584 7.92433 42.2926 8.07582 41.9113 8.07582H39.0355V10.9516C39.0355 11.3329 38.8841 11.6986 38.6144 11.9683C38.3447 12.2379 37.979 12.3894 37.5977 12.3894C37.2163 12.3894 36.8506 12.2379 36.5809 11.9683C36.3113 11.6986 36.1598 11.3329 36.1598 10.9516V8.07582Z" fill="#a854ff"></path>
                                            <path d="M47.6628 13.8273H49.1006C49.482 13.8273 49.8477 13.9788 50.1174 14.2484C50.387 14.5181 50.5385 14.8838 50.5385 15.2652C50.5385 15.6465 50.387 16.0122 50.1174 16.2819C49.8477 16.5516 49.482 16.703 49.1006 16.703H47.6628V18.1409C47.6628 18.5223 47.5113 18.888 47.2416 19.1576C46.972 19.4273 46.6062 19.5788 46.2249 19.5788C45.8435 19.5788 45.4778 19.4273 45.2082 19.1576C44.9385 18.888 44.787 18.5223 44.787 18.1409V16.703H43.3491C42.9678 16.703 42.6021 16.5516 42.3324 16.2819C42.0628 16.0122 41.9113 15.6465 41.9113 15.2652C41.9113 14.8838 42.0628 14.5181 42.3324 14.2484C42.6021 13.9788 42.9678 13.8273 43.3491 13.8273H44.787V12.3894C44.787 12.0081 44.9385 11.6424 45.2082 11.3727C45.4778 11.1031 45.8435 10.9516 46.2249 10.9516C46.6062 10.9516 46.972 11.1031 47.2416 11.3727C47.5113 11.6424 47.6628 12.0081 47.6628 12.3894V13.8273Z" fill="#a854ff"></path>
                                        </svg>